<?xml version="1.0" encoding="UTF-8" standalone="no"?>
<svg
   xmlns:dc="http://purl.org/dc/elements/1.1/"
   xmlns:cc="http://creativecommons.org/ns#"
   xmlns:rdf="http://www.w3.org/1999/02/22-rdf-syntax-ns#"
   xmlns:svg="http://www.w3.org/2000/svg"
   xmlns="http://www.w3.org/2000/svg"
   xmlns:sodipodi="http://sodipodi.sourceforge.net/DTD/sodipodi-0.dtd"
   xmlns:inkscape="http://www.inkscape.org/namespaces/inkscape"
   version="1.1"
   id="svg2"
   width="384.80634"
   height="384.97522"
   viewBox="0 0 384.80634 384.97522"
   sodipodi:docname="chipbrain.svg"
   inkscape:version="1.0.2 (1.0.2+r75+1)"
   inkscape:export-filename="/home/jbrothschild/Documents/Personal/studyGroup/img/logos/logo2.png"
   inkscape:export-xdpi="6.0476189"
   inkscape:export-ydpi="6.0476189">
  <metadata
     id="metadata8">
    <rdf:RDF>
      <cc:Work
         rdf:about="">
        <dc:format>image/svg+xml</dc:format>
        <dc:type
           rdf:resource="http://purl.org/dc/dcmitype/StillImage" />
        <dc:title />
      </cc:Work>
    </rdf:RDF>
  </metadata>
  <defs
     id="defs6" />
  <sodipodi:namedview
     pagecolor="#ffffff"
     bordercolor="#666666"
     borderopacity="1"
     objecttolerance="10"
     gridtolerance="10"
     guidetolerance="10"
     inkscape:pageopacity="0"
     inkscape:pageshadow="2"
     inkscape:window-width="1853"
     inkscape:window-height="1016"
     id="namedview4"
     showgrid="false"
     inkscape:zoom="1.8516053"
     inkscape:cx="194.20501"
     inkscape:cy="190.26373"
     inkscape:window-x="1987"
     inkscape:window-y="27"
     inkscape:window-maximized="1"
     inkscape:current-layer="g10"
     inkscape:document-rotation="0" />
  <g
     inkscape:groupmode="layer"
     inkscape:label="Image"
     id="g10"
     transform="translate(-127.27827,510.25313)">
    <path
       id="path28-3"
       style="fill:#ffffff;fill-opacity:0.99607843;stroke-width:0.666667"
       d="m 218.45955,-510.24809 c -1.67182,-0.0609 -3.31849,0.42877 -4.25586,1.55664 -0.63694,0.76638 -0.94668,5.73024 -1.19336,19.09961 l -0.33399,18.0664 -7.66601,0.40625 c -9.05254,0.47929 -12.07869,1.21946 -18.33008,4.48828 -6.10553,3.19256 -12.04419,9.11893 -15.13672,15.10547 -3.2884,6.36569 -4.02954,9.39937 -4.48047,18.33399 l -0.38672,7.66601 -18.66601,0.35938 c -10.26667,0.19792 -18.73421,0.4229 -18.81641,0.5 -0.0823,0.0771 -0.62631,1.06269 -1.20898,2.18945 -1.27994,2.47513 -0.78846,5.45355 1.20898,7.31445 1.31698,1.22694 2.45667,1.30274 19.28516,1.30274 h 17.88476 l -0.17773,19.5 -0.17578,19.5 -18.14453,0.33398 c -20.55883,0.3777 -20.49219,0.35948 -20.49219,5.41211 0,2.15795 0.38823,3.06411 1.85547,4.32617 l 1.85547,1.59571 h 17.6289 17.62891 v 19.63476 19.63672 l -17.98242,0.19727 c -17.64421,0.19356 -18.01036,0.22609 -19.48438,1.70117 -2.06424,2.06573 -2.06424,6.26045 0,8.32617 1.47402,1.47508 1.84017,1.50761 19.48438,1.70117 l 17.98242,0.19727 v 19.30273 19.30274 h -17.62891 -17.6289 l -1.85547,1.5957 c -2.43988,2.09869 -2.61367,6.30456 -0.35352,8.56641 1.47347,1.47458 1.8461,1.50845 19.48438,1.71093 l 17.98242,0.20508 v 19.29492 19.29297 h -17.30078 c -11.59597,0 -17.85535,0.25299 -18.98047,0.76563 -3.03594,1.38327 -3.79674,7.23048 -1.21875,9.37305 0.76638,0.63693 5.73219,0.94863 19.10156,1.19531 l 18.06641,0.33203 0.40625,7.66797 c 0.4793,9.05255 1.21945,12.0787 4.48828,18.33008 3.19256,6.10554 9.11893,12.04223 15.10547,15.13476 6.3657,3.2884 9.39741,4.02954 18.33203,4.48047 l 7.66797,0.38672 0.35937,18.66797 c 0.19792,10.26666 0.4229,18.75586 0.5,18.86523 0.0771,0.10937 1.11497,0.62269 2.30664,1.14063 2.65637,1.15458 2.65725,1.15436 4.90235,0.30078 3.50663,-1.3332 3.55337,-1.6066 3.57617,-20.81641 l 0.0215,-17.84375 19.5,0.17578 19.5,0.17774 0.33399,18.14453 c 0.3777,20.55882 0.35948,20.49219 5.41211,20.49219 2.15795,0 3.06215,-0.38822 4.32422,-1.85547 l 1.5957,-1.85547 v -17.63086 -17.62891 h 19.63672 19.63672 l 0.19726,17.98242 c 0.19356,17.64421 0.22414,18.01036 1.69922,19.48438 1.05716,1.05639 2.29362,1.50391 4.16406,1.50391 1.87044,0 3.1069,-0.44752 4.16406,-1.50391 1.47509,-1.47402 1.50566,-1.84017 1.69922,-19.48438 l 0.19727,-17.98242 h 19.30273 19.30274 v 17.62891 17.63086 l 1.5957,1.85547 c 2.09869,2.43988 6.30652,2.61172 8.56837,0.35156 1.47458,-1.47346 1.5065,-1.84609 1.70898,-19.48438 l 0.20703,-17.98242 h 19.29297 19.29492 v 17.30274 c 0,11.74594 0.24825,17.84894 0.77539,19.00586 1.13495,2.49096 4.99512,3.52184 7.78321,2.08008 1.15953,-0.59962 2.17124,-1.15609 2.24804,-1.23829 0.0768,-0.0823 0.30184,-8.40104 0.5,-18.48437 l 0.35938,-18.33203 7.66601,-0.40625 c 9.04834,-0.47908 12.07406,-1.21921 18.33399,-4.48633 6.03495,-3.1497 11.95772,-9.07248 15.10742,-15.10742 3.30801,-6.33827 4.05349,-9.37074 4.50586,-18.33399 l 0.38672,-7.66601 18.33398,-0.33399 c 10.08334,-0.18333 18.68561,-0.56168 19.11719,-0.84179 1.44944,-0.94071 2.31965,-4.799 1.54297,-6.8418 -1.35592,-3.56636 -1.58597,-3.60601 -20.83789,-3.62891 l -17.84375,-0.0215 0.17773,-19.5 0.17578,-19.5 18.14453,-0.33203 c 20.55883,-0.3777 20.49219,-0.36143 20.49219,-5.41407 0,-2.15795 -0.38823,-3.06214 -1.85547,-4.32421 l -1.85547,-1.59571 h -17.6289 -17.62891 v -19.63672 -19.63476 l 17.98242,-0.19727 c 17.64421,-0.19356 18.01036,-0.22609 19.48438,-1.70117 2.06424,-2.06572 2.06424,-6.26044 0,-8.32617 -1.47402,-1.47508 -1.84017,-1.50761 -19.48438,-1.70117 l -17.98242,-0.19727 v -19.30273 -19.30274 h 17.62891 17.6289 l 1.85547,-1.5957 c 2.43988,-2.09869 2.61367,-6.3065 0.35352,-8.56836 -1.47347,-1.47458 -1.8461,-1.5065 -19.48438,-1.70898 l -17.98242,-0.20704 v -19.29296 -19.29297 h 17.57617 c 16.60279,0 17.67037,-0.0747 19.28125,-1.3418 2.25738,-1.77566 2.85246,-4.66198 1.5,-7.27734 -0.58267,-1.12676 -1.12668,-2.1107 -1.20898,-2.1875 -0.0822,-0.0768 -8.39908,-0.30184 -18.48242,-0.5 l -18.33399,-0.36133 -0.40429,-7.66602 c -0.4793,-9.05254 -1.22141,-12.07868 -4.49024,-18.33008 -3.19256,-6.10553 -9.11893,-12.04222 -15.10547,-15.13476 -6.3657,-3.2884 -9.39741,-4.02955 -18.33203,-4.48047 l -7.66797,-0.38867 -0.33203,-18.33203 c -0.18333,-10.08333 -0.56364,-18.68755 -0.84375,-19.11914 -0.9407,-1.44943 -4.79704,-2.3177 -6.83984,-1.54102 -3.56636,1.35591 -3.60601,1.58402 -3.62891,20.83594 l -0.0215,17.84375 -19.5,-0.17578 -19.5,-0.17774 -0.33399,-18.14453 c -0.3777,-20.55891 -0.35948,-20.49219 -5.41211,-20.49219 -2.15795,0 -3.06215,0.38823 -4.32422,1.85547 l -1.5957,1.85547 v 17.62891 17.63086 h -19.63672 -19.63672 l -0.19727,-17.98242 c -0.19356,-17.64421 -0.22414,-18.01231 -1.69922,-19.48633 -1.05715,-1.05639 -2.29362,-1.50196 -4.16406,-1.50196 -1.87044,0 -3.1069,0.44557 -4.16406,1.50196 -1.47508,1.47402 -1.50566,1.84212 -1.69922,19.48633 l -0.19726,17.98242 h -19.30274 -19.30273 v -17.63086 -17.62891 l -1.59571,-1.85547 c -2.09869,-2.43988 -6.30651,-2.61366 -8.56836,-0.35351 -1.47458,1.47347 -1.5065,1.84805 -1.70898,19.48633 l -0.20703,17.98242 h -19.29297 -19.29492 v -17.30274 c 0,-11.59597 -0.25104,-17.85535 -0.76367,-18.98047 -0.77809,-1.70771 -2.96967,-2.69508 -5.11914,-2.77343 z m 101.21679,50.72265 c 114.0836,0 120.51094,0.0615 123.76563,1.19727 7.49243,2.61458 13.36172,8.22546 16.35352,15.63476 l 1.54687,3.83399 v 120.66797 c 0,114.40437 -0.0614,120.84479 -1.19726,124.09961 -2.61458,7.49242 -8.22547,13.35976 -15.63477,16.35156 l -3.83398,1.54883 -119.00001,0.0937 c -65.45001,0.052 -120.41599,-0.14643 -122.14648,-0.44141 -10.94734,-1.86612 -19.49765,-10.77381 -21.24805,-22.13672 -0.40175,-2.60805 -0.57497,-48.59866 -0.45898,-122.18359 l 0.1875,-118 1.54687,-3.83399 c 2.9918,-7.4093 8.86109,-13.02018 16.35352,-15.63476 3.25469,-1.13579 9.68203,-1.19727 123.76562,-1.19727 z m 32.41016,24.33008 c -6.65386,-0.0548 -13.41738,1.40017 -18.68164,4.1836 -3.92726,2.07649 -10.35694,7.74763 -12.625,11.13476 l -1.10352,1.64844 -1.10742,-1.58008 c -3.86416,-5.51685 -10.79794,-10.7052 -17.89258,-13.38672 -5.48918,-2.07471 -16.28646,-2.58941 -22.34179,-1.0664 -10.02327,2.52101 -18.65823,9.07909 -23.33985,17.72851 l -2.33984,4.32617 -3.65625,0.50586 c -10.0148,1.38587 -21.9429,10.53125 -26.75,20.50977 -1.3248,2.75 -2.56208,5.46346 -2.75,6.02929 -0.18792,0.56584 -2.60864,2.14944 -5.38086,3.51954 -17.6294,8.71292 -24.93689,31.48636 -16.08789,50.14062 1.22342,2.57904 3.44451,6.07368 4.93554,7.76758 1.49102,1.69389 2.71094,3.35235 2.71094,3.68555 0,0.3332 -0.60041,1.84886 -1.33398,3.36718 -6.16716,12.76454 -3.39483,30.5265 6.47656,41.50586 2.89128,3.2158 2.91704,3.2896 2.17774,6.03516 -0.9808,3.64235 -0.95676,13.43729 0.043,17.63086 1.53311,6.43098 5.29155,13.00545 10.28711,17.98828 7.28266,7.2641 15.6947,10.99609 24.78321,10.99609 h 4.15429 l 2.20703,4.15821 c 4.8414,9.12636 15.91705,16.93675 26.53907,18.71484 7.34712,1.22988 16.67239,-0.17657 23.27929,-3.51172 4.22886,-2.13472 11.35978,-8.31546 13.21094,-11.44922 0.62539,-1.05871 1.3384,-1.84715 1.58399,-1.75195 0.24559,0.0952 1.65514,1.71028 3.13281,3.58789 3.48525,4.42853 10.4954,9.04739 17.08594,11.25977 4.20402,1.41124 6.50838,1.76057 11.64062,1.76757 7.70997,0.0101 11.47113,-0.82536 18.06641,-4.01171 5.98427,-2.89117 11.88953,-8.52125 15.33203,-14.61719 l 2.33399,-4.13281 4.02734,-0.006 c 9.02134,-0.0162 17.48898,-3.79013 24.63867,-10.98047 7.73732,-7.78131 11.22863,-16.09508 11.20703,-26.69336 -0.007,-3.3 -0.37104,-7.28599 -0.80859,-8.85742 l -0.79492,-2.85743 3.33398,-3.74218 c 3.65114,-4.09649 7.46384,-11.33705 8.70117,-16.52735 1.00838,-4.22986 1.02007,-13.98369 0.0215,-17.76758 -0.42308,-1.60311 -1.53288,-4.63576 -2.4668,-6.73828 l -1.69922,-3.82226 2.4668,-2.50977 c 2.93166,-2.98439 6.52882,-8.89244 8.11133,-13.32226 1.48241,-4.14958 2.02097,-15.8984 0.94922,-20.6875 -2.47892,-11.077 -10.09974,-20.55862 -20.26172,-25.21094 -2.12063,-0.97085 -4.02226,-2.25867 -4.22656,-2.86133 -0.20431,-0.60267 -1.41839,-3.32 -2.69727,-6.03906 -4.61447,-9.81096 -16.73163,-19.09302 -26.82031,-20.54492 -3.59781,-0.51778 -3.63572,-0.54985 -6.01172,-4.75391 -4.89106,-8.65417 -13.92482,-15.4979 -23.4043,-17.73242 -2.82848,-0.66673 -5.83099,-1.00437 -8.85547,-1.0293 z m -63.375,11.625 c 9.80289,0.007 19.26133,5.83171 23.52539,14.92774 l 1.77344,3.7832 0.19336,82 c 0.12729,54.03653 -0.045,83.81941 -0.50196,87.33398 -1.29226,9.93965 -6.76733,17.61831 -15.35937,21.54102 -4.97621,2.2719 -13.96947,2.68837 -19.39258,0.89844 -15.0685,-4.97348 -21.41219,-21.93703 -13.91992,-37.22852 3.68518,-7.52133 11.21215,-12.54081 19.98047,-13.32422 4.91043,-0.43872 7.00855,-1.31377 7.91211,-3.29687 1.18786,-2.60709 0.88925,-4.84707 -0.88282,-6.61914 -1.39298,-1.39299 -2.26397,-1.63672 -5.85937,-1.63672 -14.16606,0 -27.94532,9.52334 -33.47852,23.14062 -1.71896,4.23039 -3.20184,13.03861 -2.58984,15.37891 0.52083,1.99164 -0.93178,2.43624 -5.06055,1.55078 -11.46291,-2.45835 -19.82599,-11.88909 -20.56445,-23.18945 -0.17196,-2.63146 -0.121,-5.54704 0.11328,-6.48047 l 0.42578,-1.69727 6.19141,0.40625 c 6.11453,0.40165 13.56923,-0.40054 17.24609,-1.85742 0.98839,-0.39163 2.27956,-1.74937 2.89063,-3.03711 1.39724,-2.94448 0.41686,-5.78724 -2.51758,-7.30469 -1.6927,-0.87533 -2.78022,-0.91354 -7.4043,-0.25781 -12.2614,1.73877 -22.83867,-3.38946 -27.30273,-13.23828 -1.03772,-2.28945 -1.40177,-4.4517 -1.41407,-8.41406 -0.0143,-4.63323 0.2654,-5.92997 2.1211,-9.86914 3.91131,-8.30275 11.82279,-14.52803 22.5957,-17.7793 5.2164,-1.57431 7.33496,-3.30564 7.97852,-6.52344 0.35233,-1.76163 0.0883,-2.44098 -1.60547,-4.13476 -1.27986,-1.27986 -2.70587,-2.02735 -3.86914,-2.02735 -4.63228,0 -18.68305,5.16995 -23.63672,8.69727 -1.95688,1.39342 -2.07382,1.40243 -3.35156,0.24609 -2.51014,-2.27164 -5.93792,-10.31877 -6.36524,-14.94336 -0.47523,-5.14317 0.92675,-11.46006 3.53125,-15.90429 1.58799,-2.70971 7.26116,-8.76172 8.21289,-8.76172 0.22642,0 0.75913,2.38267 1.1836,5.29492 0.73755,5.06034 3.06035,10.94179 5.3457,13.53711 1.6105,1.82895 5.83914,1.54367 7.91797,-0.53516 2.04381,-2.04381 1.93153,-4.47354 -0.48828,-10.63086 -1.27374,-3.24108 -1.57465,-5.26652 -1.58985,-10.67968 -0.0175,-6.22849 0.1286,-6.98409 2.17774,-11.14649 1.20886,-2.45553 3.6086,-5.87422 5.33203,-7.59765 3.0704,-3.0704 10.8497,-7.37264 12.02148,-6.64844 0.32621,0.20162 0.7492,2.85101 0.94141,5.88672 1.13085,17.8605 17.52544,33.18554 35.5,33.18554 4.72511,0 6.70205,-1.08774 7.35156,-4.04492 0.91985,-4.18806 -1.85098,-7.27947 -6.54101,-7.29687 -2.75163,-0.0102 -8.17442,-1.45875 -11.07422,-2.95899 -3.22164,-1.66674 -8.54754,-6.81772 -10.50977,-10.16601 -3.56321,-6.08015 -4.35951,-12.82196 -2.29687,-19.44922 3.29835,-10.59761 10.35325,-16.93215 20.90429,-18.76953 1.40033,-0.24386 2.80858,-0.36043 4.20899,-0.35938 z m 62.94726,0.01 c 7.43829,-0.17053 14.97694,2.53306 20.27149,8.42187 4.33098,4.81709 5.99024,9.50919 5.99024,16.94727 0,8.42664 -1.69403,12.57293 -7.51563,18.39453 -4.99215,4.99215 -9.16888,6.9452 -16.93164,7.91992 -5.32827,0.66904 -6.43023,1.48085 -6.91211,5.09375 -0.26708,2.0025 -0.017,3.0073 1.09961,4.42383 1.31286,1.66544 1.84425,1.83398 5.80078,1.83398 9.43062,0 17.905,-3.67984 25.28907,-10.98047 6.95184,-6.87327 10.92578,-15.6453 10.92578,-24.11914 0,-1.91799 0.30893,-3.6801 0.6875,-3.91406 1.25384,-0.77492 8.93181,3.40447 12.13086,6.60352 1.73122,1.73122 4.12489,5.15782 5.31836,7.61328 2.00215,4.11925 2.16984,4.97969 2.18164,11.13086 0.0115,6.02144 -0.19632,7.17069 -2.15235,11.88281 -2.61426,6.29781 -2.65044,7.10481 -0.43945,9.73242 2.20672,2.62254 5.30811,2.7762 8.12695,0.4043 2.01662,-1.69687 4.84325,-8.9284 5.80469,-14.85352 0.26931,-1.65971 0.8217,-2.83398 1.33398,-2.83398 0.48097,0 2.38233,1.65203 4.22657,3.66992 8.64092,9.45455 8.8712,24.62672 0.52539,34.59375 l -1.61524,1.93164 -3.38672,-2.08398 c -6.40644,-3.94192 -18.00867,-8.11133 -22.57421,-8.11133 -4.12793,0 -6.52988,4.36 -4.61524,8.375 0.95802,2.00899 1.65411,2.41447 6.92188,4.01172 13.01781,3.94717 19.09541,8.19156 22.60547,15.79101 1.69827,3.67683 1.91763,4.88739 1.89453,10.49024 -0.0355,8.6082 -1.71128,12.85582 -7.25,18.38476 -3.12892,3.12338 -4.77349,4.22899 -7.18555,4.83203 -3.94559,0.98644 -8.66816,0.99461 -14.54883,0.0234 -3.53126,-0.58314 -5.04958,-0.57285 -6.54101,0.0449 -1.89236,0.78384 -3.44922,3.09007 -3.44922,5.11133 0,2.13265 2.03238,4.8431 4.15429,5.53906 3.24426,1.06409 13.58844,1.9409 18.41993,1.56055 3.16321,-0.24902 4.39015,-0.10133 4.82421,0.58399 0.97459,1.53868 0.66942,9.48004 -0.49804,12.96679 -3.02847,9.04493 -10.02535,15.38946 -19.40821,17.59766 -5.04109,1.18638 -5.49218,0.84527 -5.49218,-4.15039 0,-9.17342 -3.71768,-17.58486 -10.98047,-24.84766 -7.33896,-7.33896 -15.66523,-10.98047 -25.11133,-10.98047 -4.04384,0 -4.61168,0.16967 -5.85938,1.75586 -1.54719,1.96694 -1.74833,4.0451 -0.62891,6.50196 0.91363,2.00518 3.00762,2.85756 8.1211,3.31054 7.56726,0.67034 16.47094,6.58756 19.83399,13.17969 3.6364,7.12791 4.07266,15.33037 1.2207,22.96289 -2.03148,5.43668 -8.03561,11.41652 -13.59571,13.54297 -13.4372,5.13902 -28.55165,-0.36283 -34.2207,-12.45703 l -1.7793,-3.79688 v -88 -88 l 1.7793,-3.79687 c 4.24192,-9.0496 13.63961,-14.01904 23.20312,-14.23828 z m -88.41796,77.24218 c -2.13353,-0.0829 -3.90365,0.93244 -5.10547,2.99024 -1.48215,2.5378 -1.11524,4.96039 1.00976,6.6582 6.58218,5.25897 6.74449,5.52725 7.16016,11.78711 0.33535,5.05034 0.59487,5.98999 1.95312,7.08984 2.04348,1.65469 5.44983,1.62555 7.26172,-0.0625 2.75629,-2.56787 3.25119,-11.66779 0.92188,-16.93359 -1.7345,-3.92112 -6.69906,-9.2032 -10.08594,-10.73047 -1.10074,-0.49636 -2.14545,-0.76115 -3.11523,-0.79883 z m 113.875,0 c -4.57424,-0.0191 -10.98107,5.71066 -13.4336,12.26563 -2.14483,5.73257 -1.65086,15.40156 0.86914,17.00391 1.79124,1.13897 5.83599,0.53902 7.48438,-1.10938 1.44901,-1.44904 1.61616,-2.14325 1.49414,-6.19141 -0.16068,-5.33092 1.3521,-8.49753 5.18946,-10.86914 2.69108,-1.66319 3.62304,-3.15173 3.62304,-5.78125 0,-2.71156 -1.67828,-4.73737 -4.33789,-5.23632 -0.28694,-0.0538 -0.58372,-0.0808 -0.88867,-0.082 z m -77.20704,33.12696 c -4.8436,0 -16.32841,4.9394 -22.58203,9.71289 l -3.24414,2.47656 -4.54883,-1.17969 c -11.61634,-3.01288 -25.1914,1.47052 -25.1914,8.32032 0,2.57501 0.84937,4.05612 3,5.23242 1.97509,1.08029 3.95596,0.92257 5.74414,-0.45703 4.25361,-3.28172 9.37853,-3.5252 17.06445,-0.81446 3.13367,1.10522 6.12714,1.76926 7,1.55469 0.83875,-0.20618 3.38959,-2.14445 5.66797,-4.30859 4.22938,-4.0173 10.80111,-7.60359 16.85742,-9.19922 4.07224,-1.07289 6,-2.97311 6,-5.91211 0,-3.41719 -2.13573,-5.42578 -5.76758,-5.42578 z m 38.9004,0.29101 c -0.30019,0.0145 -0.56094,0.0552 -0.7793,0.1211 -2.46437,0.74355 -4.35352,3.03489 -4.35352,5.28125 0,3.0899 2.08602,5.33602 5.81641,6.26562 6.18026,1.54008 12.8784,5.31968 17.45312,9.84961 4.9604,4.91183 5.09207,4.93213 12.92774,1.92774 6.11675,-2.34531 9.73337,-2.26817 15.03907,0.32031 4.57135,2.23019 6.49309,2.21394 8.78125,-0.0742 0.85644,-0.85644 1.3164,-2.21677 1.3164,-3.89258 0,-3.08307 -1.91935,-5.28497 -6.5625,-7.53515 -4.20232,-2.03655 -13.63833,-2.50571 -19.00586,-0.94532 l -3.75977,1.0918 -3.4082,-2.69336 c -5.78965,-4.57645 -18.96211,-9.9337 -23.46484,-9.7168 z"
       inkscape:export-xdpi="18.710711"
       inkscape:export-ydpi="18.710711" />
    <path
       id="path63"
       style="fill:#ffffff;fill-opacity:0.99607843;stroke-width:0.666667"
       d="m 347.60156,-428.49219 c -6.65386,-0.0548 -13.41738,1.40017 -18.68164,4.1836 -3.92726,2.07649 -10.35694,7.74763 -12.625,11.13476 l -1.10351,1.64844 -1.10743,-1.58008 c -3.86416,-5.51685 -10.79793,-10.7052 -17.89257,-13.38672 -5.48918,-2.07471 -16.28647,-2.58941 -22.3418,-1.0664 -10.02327,2.52101 -18.65822,9.07909 -23.33984,17.72851 l -2.33985,4.32617 -3.65625,0.50586 c -10.0148,1.38587 -21.9429,10.53125 -26.75,20.50977 -1.3248,2.75 -2.56208,5.46347 -2.75,6.0293 -0.18792,0.56584 -2.60864,2.14943 -5.38086,3.51953 -17.6294,8.71292 -24.93689,31.48636 -16.08789,50.14062 1.22342,2.57904 3.44452,6.07368 4.93555,7.76758 1.49102,1.69389 2.71094,3.35235 2.71094,3.68555 0,0.3332 -0.60042,1.84886 -1.33399,3.36718 -6.16716,12.76454 -3.39483,30.5265 6.47656,41.50586 2.89128,3.2158 2.91704,3.2896 2.17774,6.03516 -0.9808,3.64235 -0.95679,13.43729 0.043,17.63086 1.53311,6.43098 5.29155,13.00545 10.28711,17.98828 7.28266,7.2641 15.69469,10.99609 24.7832,10.99609 h 4.1543 l 2.20703,4.15821 c 4.8414,9.12636 15.91704,16.93675 26.53906,18.71484 7.34712,1.22988 16.6724,-0.17657 23.2793,-3.51172 4.22886,-2.13472 11.35978,-8.31546 13.21093,-11.44922 0.62539,-1.05871 1.3384,-1.84715 1.58399,-1.75195 0.24559,0.0952 1.65514,1.71028 3.13281,3.58789 3.48525,4.42853 10.4954,9.04739 17.08594,11.25977 4.20402,1.41124 6.50838,1.76057 11.64062,1.76757 7.70997,0.0101 11.47113,-0.82536 18.06641,-4.01171 5.98427,-2.89117 11.88953,-8.52125 15.33203,-14.61719 l 2.33399,-4.13281 4.02734,-0.006 c 9.02134,-0.0162 17.48898,-3.79013 24.63867,-10.98047 7.73732,-7.78131 11.22863,-16.09508 11.20703,-26.69336 -0.007,-3.3 -0.37104,-7.28599 -0.80859,-8.85742 l -0.79492,-2.85742 3.33398,-3.74219 c 3.65114,-4.09649 7.46384,-11.33705 8.70117,-16.52735 1.00838,-4.22986 1.02006,-13.98368 0.0215,-17.76757 -0.42308,-1.60311 -1.53288,-4.63577 -2.4668,-6.73829 l -1.69922,-3.82226 2.4668,-2.50977 c 2.93166,-2.98439 6.52882,-8.89244 8.11133,-13.32226 1.48241,-4.14958 2.02097,-15.8984 0.94922,-20.6875 -2.47892,-11.077 -10.09974,-20.55862 -20.26172,-25.21094 -2.12063,-0.97085 -4.02226,-2.25867 -4.22657,-2.86133 -0.20431,-0.60267 -1.41838,-3.32 -2.69726,-6.03906 -4.61447,-9.81096 -16.73163,-19.09302 -26.82031,-20.54492 -3.59781,-0.51778 -3.63572,-0.54985 -6.01172,-4.75391 -4.89106,-8.65417 -13.92482,-15.4979 -23.4043,-17.73242 -2.82848,-0.66673 -5.83099,-1.00437 -8.85547,-1.0293 z m -63.375,11.625 c 9.80289,0.007 19.26133,5.83171 23.52539,14.92774 l 1.77344,3.7832 0.19336,82 c 0.12729,54.03653 -0.045,83.81941 -0.50195,87.33398 -1.29226,9.93965 -6.76734,17.61831 -15.35938,21.54102 -4.97621,2.2719 -13.96947,2.68837 -19.39258,0.89844 -15.0685,-4.97348 -21.41219,-21.93703 -13.91992,-37.22852 3.68518,-7.52133 11.21215,-12.54081 19.98047,-13.32422 4.91043,-0.43872 7.00855,-1.31377 7.91211,-3.29687 1.18786,-2.60709 0.88926,-4.84707 -0.88281,-6.61914 -1.39298,-1.39299 -2.26398,-1.63672 -5.85938,-1.63672 -14.16606,0 -27.94531,9.52334 -33.47851,23.14062 -1.71896,4.23039 -3.20185,13.03861 -2.58985,15.37891 0.52083,1.99164 -0.93177,2.43624 -5.06054,1.55078 -11.46291,-2.45835 -19.826,-11.88909 -20.56446,-23.18945 -0.17196,-2.63146 -0.121,-5.54704 0.11328,-6.48047 l 0.42579,-1.69727 6.1914,0.40625 c 6.11453,0.40165 13.56924,-0.40054 17.2461,-1.85742 0.98839,-0.39163 2.27955,-1.74937 2.89062,-3.03711 1.39724,-2.94448 0.41686,-5.78724 -2.51758,-7.30468 -1.6927,-0.87534 -2.78021,-0.91355 -7.40429,-0.25782 -12.2614,1.73877 -22.83868,-3.38946 -27.30274,-13.23828 -1.03772,-2.28945 -1.40176,-4.4517 -1.41406,-8.41406 -0.0143,-4.63323 0.26539,-5.92997 2.12109,-9.86914 3.91131,-8.30275 11.8228,-14.52803 22.59571,-17.7793 5.2164,-1.57431 7.33495,-3.30564 7.97851,-6.52344 0.35233,-1.76163 0.0883,-2.44098 -1.60547,-4.13476 -1.27986,-1.27986 -2.70587,-2.02735 -3.86914,-2.02735 -4.63228,0 -18.68305,5.16995 -23.63672,8.69727 -1.95688,1.39342 -2.07382,1.40243 -3.35156,0.24609 -2.51014,-2.27164 -5.93791,-10.31877 -6.36523,-14.94336 -0.47523,-5.14317 0.92675,-11.46006 3.53125,-15.90429 1.58799,-2.70971 7.26116,-8.76172 8.21289,-8.76172 0.22642,0 0.75912,2.38267 1.18359,5.29492 0.73755,5.06034 3.06035,10.94179 5.3457,13.53711 1.6105,1.82895 5.83914,1.54367 7.91797,-0.53516 2.04381,-2.04381 1.93153,-4.47354 -0.48828,-10.63086 -1.27374,-3.24108 -1.57464,-5.26652 -1.58984,-10.67968 -0.0175,-6.22849 0.12859,-6.98409 2.17773,-11.14649 1.20886,-2.45553 3.6086,-5.87422 5.33203,-7.59765 3.0704,-3.0704 10.84971,-7.37264 12.02149,-6.64844 0.32621,0.20162 0.74919,2.85101 0.9414,5.88672 1.13085,17.8605 17.52544,33.18554 35.5,33.18554 4.72511,0 6.70206,-1.08774 7.35157,-4.04492 0.91985,-4.18806 -1.85099,-7.27947 -6.54102,-7.29687 -2.75163,-0.0102 -8.17442,-1.45875 -11.07422,-2.95899 -3.22164,-1.66674 -8.54753,-6.81772 -10.50976,-10.16601 -3.56321,-6.08015 -4.35952,-12.82196 -2.29688,-19.44922 3.29835,-10.59761 10.35326,-16.93215 20.9043,-18.76953 1.40033,-0.24386 2.80857,-0.36043 4.20898,-0.35938 z m 62.94727,0.01 c 7.43829,-0.17053 14.97693,2.53306 20.27148,8.42187 4.33098,4.81709 5.99024,9.50919 5.99024,16.94727 0,8.42664 -1.69403,12.57293 -7.51563,18.39453 -4.99215,4.99215 -9.16888,6.9452 -16.93164,7.91992 -5.32827,0.66904 -6.43023,1.48085 -6.91211,5.09375 -0.26708,2.0025 -0.017,3.0073 1.09961,4.42383 1.31286,1.66544 1.84425,1.83398 5.80078,1.83398 9.43062,0 17.90499,-3.67983 25.28906,-10.98046 6.95185,-6.87327 10.92579,-15.64531 10.92579,-24.11915 0,-1.91798 0.30893,-3.6801 0.6875,-3.91406 1.25384,-0.77492 8.93181,3.40447 12.13086,6.60352 1.73122,1.73122 4.12489,5.15782 5.31835,7.61328 2.00215,4.11925 2.16985,4.97969 2.18165,11.13086 0.0115,6.02144 -0.19632,7.17069 -2.15235,11.88281 -2.61426,6.29781 -2.65044,7.10481 -0.43945,9.73242 2.20672,2.62254 5.30811,2.7762 8.12695,0.4043 2.01662,-1.69687 4.84325,-8.9284 5.80469,-14.85352 0.26931,-1.65971 0.8217,-2.83398 1.33398,-2.83398 0.48097,0 2.38233,1.65203 4.22657,3.66992 8.64092,9.45455 8.8712,24.62672 0.52539,34.59375 l -1.61524,1.93164 -3.38672,-2.08398 c -6.40644,-3.94192 -18.00868,-8.11133 -22.57421,-8.11133 -4.12793,0 -6.52988,4.36 -4.61524,8.375 0.95802,2.00899 1.65411,2.41447 6.92188,4.01172 13.01781,3.94717 19.0954,8.19156 22.60546,15.79101 1.69827,3.67683 1.91764,4.88739 1.89454,10.49024 -0.0355,8.6082 -1.71128,12.85582 -7.25,18.38476 -3.12892,3.12338 -4.77349,4.229 -7.18555,4.83204 -3.94559,0.98644 -8.66816,0.99464 -14.54883,0.0234 -3.53126,-0.58314 -5.04958,-0.57283 -6.54102,0.0449 -1.89235,0.78383 -3.44921,3.09006 -3.44921,5.11132 0,2.13265 2.03238,4.84311 4.15429,5.53907 3.24426,1.06409 13.58844,1.94089 18.41992,1.56054 3.16321,-0.24902 4.39016,-0.10133 4.82422,0.58399 0.97459,1.53868 0.66942,9.48004 -0.49804,12.96679 -3.02847,9.04493 -10.02535,15.38946 -19.40821,17.59766 -5.04109,1.18638 -5.49218,0.84527 -5.49218,-4.15039 0,-9.17342 -3.71768,-17.58486 -10.98047,-24.84766 -7.33896,-7.33896 -15.66523,-10.98047 -25.11133,-10.98047 -4.04384,0 -4.61168,0.16967 -5.85938,1.75586 -1.54719,1.96694 -1.74832,4.0451 -0.6289,6.50196 0.91363,2.00518 3.00761,2.85756 8.12109,3.31054 7.56726,0.67034 16.47094,6.58756 19.83399,13.17969 3.6364,7.12791 4.07266,15.33037 1.2207,22.96289 -2.03148,5.43668 -8.0356,11.41652 -13.5957,13.54297 -13.4372,5.13902 -28.55166,-0.36283 -34.22071,-12.45703 l -1.77929,-3.79688 v -88 -88 l 1.77929,-3.79687 c 4.24192,-9.0496 13.63962,-14.01904 23.20313,-14.23828 z m -88.41797,77.24219 c -2.13353,-0.0829 -3.90365,0.93243 -5.10547,2.99023 -1.48215,2.5378 -1.11523,4.96039 1.00977,6.6582 6.58218,5.25897 6.74448,5.52725 7.16015,11.78711 0.33535,5.05034 0.59488,5.99 1.95313,7.08985 2.04348,1.65469 5.44983,1.62555 7.26172,-0.0625 2.75629,-2.56787 3.25118,-11.6678 0.92187,-16.9336 -1.7345,-3.92112 -6.69906,-9.2032 -10.08594,-10.73047 -1.10074,-0.49636 -2.14545,-0.76114 -3.11523,-0.79882 z m 113.875,0 c -4.57424,-0.0191 -10.98106,5.71065 -13.43359,12.26562 -2.14483,5.73257 -1.65086,15.40156 0.86914,17.00391 1.79124,1.13897 5.83598,0.53902 7.48437,-1.10938 1.44901,-1.44904 1.61616,-2.14324 1.49414,-6.1914 -0.16068,-5.33092 1.3521,-8.49753 5.18946,-10.86914 2.69107,-1.66319 3.62304,-3.15174 3.62304,-5.78126 0,-2.71156 -1.67828,-4.73737 -4.33789,-5.23632 -0.28694,-0.0538 -0.58372,-0.0808 -0.88867,-0.082 z m -77.20703,33.12695 c -4.8436,0 -16.32841,4.9394 -22.58203,9.71289 l -3.24414,2.47656 -4.54883,-1.17969 c -11.61634,-3.01288 -25.19141,1.47052 -25.19141,8.32032 0,2.57501 0.84937,4.05612 3,5.23242 1.97509,1.08029 3.95596,0.92257 5.74414,-0.45703 4.25361,-3.28172 9.37854,-3.5252 17.06446,-0.81446 3.13367,1.10522 6.12714,1.76926 7,1.55469 0.83875,-0.20618 3.38958,-2.14445 5.66796,-4.30859 4.22938,-4.0173 10.80112,-7.60359 16.85743,-9.19922 4.07224,-1.07289 6,-2.97311 6,-5.91211 0,-3.41719 -2.13573,-5.42578 -5.76758,-5.42578 z m 38.90039,0.29101 c -0.30019,0.0145 -0.56094,0.0552 -0.7793,0.1211 -2.46437,0.74355 -4.35351,3.03489 -4.35351,5.28125 0,3.0899 2.08601,5.33602 5.8164,6.26562 6.18026,1.54008 12.87841,5.31968 17.45313,9.84961 4.9604,4.91183 5.09206,4.93213 12.92773,1.92774 6.11675,-2.34531 9.73336,-2.26817 15.03906,0.32031 4.57135,2.23019 6.49309,2.21392 8.78125,-0.0742 0.85644,-0.85644 1.31641,-2.21677 1.31641,-3.89258 0,-3.08307 -1.91935,-5.28497 -6.5625,-7.53515 -4.20232,-2.03655 -13.63833,-2.50571 -19.00586,-0.94532 l -3.75976,1.0918 -3.40821,-2.69336 c -5.78965,-4.57645 -18.96211,-9.9337 -23.46484,-9.7168 z"
       transform="translate(4.4857993,-6.7035699)"
       inkscape:export-xdpi="18.710711"
       inkscape:export-ydpi="18.710711" />
  </g>
</svg>
