<svg xmlns="http://www.w3.org/2000/svg" xmlns:xlink="http://www.w3.org/1999/xlink" width="100.0" height="100.0" viewBox="-79.42373624654661 43.62912524734518 0.04794778684534151 0.05076003808391505" preserveAspectRatio="xMinYMin meet"><g transform="matrix(1,0,0,-1,0,87.30901053277427)"><g><path fill-rule="evenodd" fill="#66cc99" stroke="#555555" stroke-width="0.001015200761678301" opacity="0.6" d="M -79.40792017043108,43.63296978534256 L -79.40844646142484,43.634350007999245 L -79.40861858793687,43.63443222048306 L -79.40874745593234,43.63445238779015 L -79.4085234257068,43.63469162590749 L -79.40826060507624,43.63492177695938 L -79.40812192420424,43.635024928567304 L -79.4079832664107,43.63510955500585 L -79.40781543040028,43.63519679504741 L -79.40761844866742,43.63528136481252 L -79.40747617728933,43.6353282811657 L -79.4070058047533,43.635440351359804 L -79.40671593483033,43.63549030554359 L -79.40668313337012,43.635495958494914 L -79.40617645453104,43.63555269133913 L -79.40565254422263,43.635603655869446 L -79.4050890576846,43.63562422338412 L -79.40314712232647,43.63575592489235 L -79.40278601708593,43.63579339602612 L -79.40237592730205,43.63584193184685 L -79.40198724053312,43.635906048201356 L -79.40164751247339,43.63595909783325 L -79.40120371730357,43.636034262888145 L -79.40095578303362,43.636089613571265 L -79.40064357526651,43.636160462265 L -79.40021193609846,43.636288977126256 L -79.39992720578608,43.63638873388538 L -79.3996512093861,43.636493996704196 L -79.39972246710464,43.636640847039345 L -79.39981695977227,43.6368356146554 L -79.40001951978445,43.63735092895997 L -79.40024222469087,43.63786545891316 L -79.40028837348588,43.637969223136444 L -79.40031109868383,43.63803402654238 L -79.40043723902252,43.63832223744973 L -79.40065118173881,43.638848748044545 L -79.40066449001728,43.63888149790995 L -79.40127301988935,43.6403790374905 L -79.40134980426424,43.64056513638136 L -79.40142366391424,43.64075908191853 L -79.40168298422618,43.64139756917323 L -79.40173772816998,43.641532340458525 L -79.40189703077294,43.641924530817874 L -79.40219758282156,43.642664593772366 L -79.40239839913376,43.64320328459964 L -79.40270721956641,43.6439355222567 L -79.40290241476296,43.64442144195962 L -79.40295520876295,43.644544687210555 L -79.40310728144357,43.64489969140413 L -79.40323546774835,43.64520130665568 L -79.4033714033872,43.645525926600975 L -79.40376282431002,43.646481265215755 L -79.40390087582075,43.64685939008911 L -79.4040125136132,43.64719797708037 L -79.40419172427619,43.647686032824915 L -79.40432967669592,43.6480360821174 L -79.4043423949773,43.64806781327098 L -79.40459165175555,43.64868946997393 L -79.40460451851789,43.648721561277135 L -79.40465187106366,43.64884139883528 L -79.40470481216646,43.64897864951921 L -79.40550196422438,43.65101499056805 L -79.40564859977025,43.65138154063436 L -79.40602470484315,43.65232168652373 L -79.40683803199171,43.65429714228104 L -79.40754111320106,43.656036648673584 L -79.4077252018597,43.65649207928371 L -79.40847097639175,43.658299467236006 L -79.40909175201053,43.659816421457045 L -79.4094395682318,43.660715749076495 L -79.40977236330137,43.66152486927676 L -79.41025280644419,43.662679244676795 L -79.4107196935343,43.663840375849695 L -79.4112161656143,43.665125989600945 L -79.4117804564042,43.66501967664099 L -79.41184694776209,43.66500714371837 L -79.41244038275399,43.66489534106046 L -79.41365257800699,43.66462745886942 L -79.41486110431252,43.66435082103217 L -79.41599437170693,43.66409909451894 L -79.41611627070252,43.66407944356893 L -79.41722046882343,43.66384484728442 L -79.41841895002517,43.66359546332637 L -79.41857738067435,43.663958302953816 L -79.41879360668142,43.66445346673906 L -79.4194706563577,43.66618416109183 L -79.41962692057827,43.666583578058216 L -79.41975317668845,43.66691649903503 L -79.41993729060968,43.667401951509056 L -79.42020476870701,43.66812939001043 L -79.42029511545623,43.66834970587628 L -79.42064420079994,43.669264706151104 L -79.42093597188837,43.67002265588876 L -79.42109394757031,43.67043278329189 L -79.42123003661004,43.67078607016628 L -79.4215473396396,43.67163279766164 L -79.4218562451361,43.67242902104202 L -79.4218221342994,43.672435524020415 L -79.41962884666556,43.67288904186491 L -79.41710831025362,43.673410144901595 L -79.41675243560229,43.67348371867626 L -79.41469622436504,43.6739208046516 L -79.41467791469668,43.67392469766089 L -79.41371921854021,43.67412188639985 L -79.4121890974668,43.67444188786579 L -79.411363859064,43.674606294777284 L -79.40785084879451,43.67533264093786 L -79.40733664916692,43.675439459819216 L -79.40496981014951,43.675931150204796 L -79.40314633928126,43.676309917257036 L -79.40303273229587,43.67633682555824 L -79.40291954159443,43.67635923345449 L -79.40288589930498,43.6763644348484 L -79.40280672286283,43.67638164155876 L -79.40269429376113,43.676408550538625 L -79.40258146244365,43.6764309584229 L -79.4024694176009,43.676457867520696 L -79.40235737265358,43.676484776515935 L -79.40224571206222,43.676511685734866 L -79.40213405855472,43.67653409420347 L -79.40202277502783,43.67656550419419 L -79.40191189544815,43.676592413773186 L -79.40180099614896,43.67662382389149 L -79.40169050081514,43.676650733598386 L -79.4015803898398,43.676677643534035 L -79.40147027152177,43.67670905402275 L -79.40136054994778,43.676740464753394 L -79.40125120031448,43.67677187570584 L -79.40114224742649,43.676803286902384 L -79.40103327474361,43.6768391986469 L -79.40093867291804,43.67686162066798 L -79.4008444533061,43.6768930442678 L -79.40075062024516,43.676915466806 L -79.40065677250405,43.676946890584674 L -79.40056372570285,43.676973814321464 L -79.40047065909451,43.677005238634955 L -79.40037798417413,43.67703216255431 L -79.40028530916719,43.67705908640452 L -79.40019340806457,43.6770905115207 L -79.40010188397925,43.67712643756216 L -79.40001036713402,43.6771578628786 L -79.3999196315211,43.67718928880695 L -79.39982887100504,43.67722071464852 L -79.39973851912247,43.67725214048919 L -79.39964894089815,43.67728806749352 L -79.39955935016327,43.67732399441725 L -79.3994701635873,43.6773554209584 L -79.39938134158169,43.67739134841738 L -79.39929291634061,43.677427276156216 L -79.39920526491882,43.677467705174294 L -79.39911761582051,43.677499132793415 L -79.39900397895374,43.677548540136435 L -79.39889073380846,43.67759344704549 L -79.39877788536538,43.67763835419325 L -79.39866579329208,43.67768326189864 L -79.3985537059863,43.67773267016646 L -79.39844239489685,43.677777587346505 L -79.39833108858915,43.6778269870879 L -79.39822053862416,43.6778763963942 L -79.39811038535052,43.6779258059468 L -79.39800061636689,43.67797521573583 L -79.39793407701352,43.67800528401858 L -79.3977725086086,43.67760620096657 L -79.39762951110427,43.677212967085055 L -79.39742632770476,43.6767015726256 L -79.39728086693219,43.67638937505754 L -79.39694424211757,43.67556300216549 L -79.39677247231869,43.67513927159515 L -79.39660865752518,43.67473518876021 L -79.39630702859506,43.67401480880464 L -79.39614665786289,43.67364602250526 L -79.39603083970843,43.67336205103679 L -79.395747735856,43.67266672775765 L -79.39543856296426,43.671911655828 L -79.39507353215232,43.67101261803753 L -79.3948239730432,43.67039606639487 L -79.39463774091632,43.66994247889631 L -79.39450739114419,43.669616545759446 L -79.3941444522917,43.668730603072134 L -79.3935292598972,43.66727546632093 L -79.39315381959825,43.66638295217897 L -79.3931718458659,43.66625799305517 L -79.39317192564327,43.66621272489771 L -79.39317199779016,43.666171786424506 L -79.39318099189376,43.666120081563434 L -79.39319593404633,43.66607052459876 L -79.39321382247108,43.66601666769535 L -79.39324955293075,43.665956364412196 L -79.39328228186866,43.66591760776034 L -79.39332392888353,43.66587022703862 L -79.39335664633732,43.665837942388755 L -79.39339333751767,43.66580231289869 L -79.3933954350301,43.665801189674156 L -79.39341987359627,43.66578771029502 L -79.39344392776331,43.66577423055248 L -79.3934675806407,43.66575624971171 L -79.39349046922133,43.665742768873514 L -79.39351296100425,43.66572928766126 L -79.39353470430478,43.665711305028395 L -79.39355604290348,43.665697822734025 L -79.39357699260535,43.66567983935439 L -79.39359717352019,43.66566185525558 L -79.39361697003561,43.665643870795556 L -79.39363559308369,43.66563038596007 L -79.39365383512448,43.665607899328364 L -79.39367131288523,43.665589912702536 L -79.39368877823546,43.66557192606247 L -79.39370469364611,43.66555392897758 L -79.39372023251772,43.66553144882388 L -79.39373537911962,43.6655134600216 L -79.39374936804128,43.665490969422144 L -79.39376296468113,43.66547297917599 L -79.3937757801418,43.66545498820259 L -79.3937878347068,43.665432495801454 L -79.39379689322054,43.66541442932464 L -79.39379910809234,43.66541000267351 L -79.39380960029928,43.665387508819 L -79.3938212625713,43.66536951676944 L -79.39383215154649,43.66534702328112 L -79.3938334961464,43.66534391003145 L -79.39384188735913,43.665324528721214 L -79.39385122638005,43.665302033792095 L -79.39385978422537,43.66527953813708 L -79.39386757329555,43.66525704176788 L -79.39387458119192,43.66523454467311 L -79.39388043593097,43.66521204650777 L -79.39388552189787,43.665189547628664 L -79.39389021107766,43.66516704838107 L -79.39389412696218,43.665140047695914 L -79.3938968694191,43.66511754664157 L -79.39389885550696,43.66509504488531 L -79.39390045268516,43.66506804204826 L -79.3939004920569,43.66504553848559 L -79.39390053142856,43.66502303492283 L -79.39389902088641,43.66500052092051 L -79.39389712593157,43.66497802456427 L -79.39389444983004,43.6649555184817 L -79.3938906205844,43.664933011328955 L -79.39388601017852,43.66491050345113 L -79.39388101087084,43.664883494492145 L -79.39387523492846,43.66486098553206 L -79.39386830584624,43.664838475501384 L -79.3938605956075,43.66481596474513 L -79.39359135220072,43.66408963131052 L -79.39321210270404,43.663079252938275 L -79.3931089822934,43.66277550189673 L -79.39295216469566,43.662484995617504 L -79.39291236657104,43.66243451425833 L -79.39249630266788,43.6619068462043 L -79.39240818376507,43.66173264836187 L -79.39230092593287,43.66149332496081 L -79.39228110390884,43.66145648137249 L -79.39221762186116,43.66133839458608 L -79.39213684843435,43.66122476516913 L -79.3920518343094,43.661132402106745 L -79.39192634765297,43.66101434660681 L -79.3917426787083,43.66088034833657 L -79.39169584807858,43.660853299644145 L -79.39164783963216,43.66082624981613 L -79.39159983557616,43.66080370069552 L -79.39155108330492,43.66077665012122 L -79.39150191386756,43.6607540998537 L -79.39145234794252,43.660731549156836 L -79.3914020342321,43.66070449694679 L -79.39135170010314,43.660681945418816 L -79.39130058924357,43.66066389385251 L -79.39121890358345,43.66063231095192 L -79.39119930182687,43.6606253881554 L -79.39116718823585,43.66061952459649 L -79.39114223556031,43.660609734226746 L -79.39111706644299,43.660596208044254 L -79.39109268273492,43.660587183329554 L -79.39106827423886,43.66057815858599 L -79.3910446592438,43.66056913459478 L -79.39102103996184,43.66055560987072 L -79.39099820607929,43.66054658661579 L -79.39097576465946,43.660533063007314 L -79.39095369520076,43.66051953974983 L -79.39093202249947,43.66050601686724 L -79.3909111309025,43.66049249472718 L -79.3908906112655,43.66047897293887 L -79.39087088513011,43.66046545190565 L -79.39085155147018,43.66044743052041 L -79.39083297839785,43.66043391058335 L -79.39081517402883,43.66042039137873 L -79.39079737779204,43.66040237145505 L -79.39078075940375,43.66038435265584 L -79.39076451724783,43.66037083493826 L -79.39074905192007,43.66035281723801 L -79.39073395042267,43.660339300607994 L -79.39071965055149,43.660321284019496 L -79.39070651612609,43.66030326854531 L -79.39069337744372,43.66028075234139 L -79.3906785226949,43.66026792905171 L -79.39064216676954,43.660187961358815 L -79.39063310253738,43.66016800546312 L -79.3904973370395,43.65986935123287 L -79.39030975745978,43.6594567516962 L -79.38998652009906,43.65871172358512 L -79.38993859272925,43.65860125657685 L -79.3896503973859,43.65793037265194 L -79.38949183335369,43.65754007136274 L -79.38933027197002,43.6571424397766 L -79.3889740904871,43.65636797293443 L -79.3889701159128,43.65635844557987 L -79.38869059080662,43.655688090566706 L -79.38860133440723,43.65547602033069 L -79.38832297827712,43.65481459485352 L -79.388316631716,43.65480067246506 L -79.3879406066222,43.653977088974464 L -79.38758419332838,43.65311839093845 L -79.38755374591354,43.65304506245002 L -79.38724750380084,43.65232464734127 L -79.38699866100974,43.651766313614466 L -79.3866310497413,43.65086313419635 L -79.38629357557771,43.65009720107305 L -79.38555859556122,43.64887917325838 L -79.38536235497295,43.64856728753685 L -79.38518907950686,43.648291906857615 L -79.3848092186104,43.647672277696984 L -79.38410223676372,43.64639381332775 L -79.38386065376613,43.64598490673928 L -79.38379415641477,43.6458780110677 L -79.38368687877293,43.64570556197764 L -79.38342894077151,43.64509349534794 L -79.38253715870907,43.64528839536687 L -79.38247334659255,43.64530233483907 L -79.38241658892787,43.64516032426796 L -79.38226753439058,43.64482658726612 L -79.38215851860082,43.64458252734534 L -79.38211701710513,43.644474674582604 L -79.38185451586885,43.64382023396972 L -79.38164378209254,43.64331292899814 L -79.38147776824813,43.64292276931452 L -79.38111470625404,43.642069558262705 L -79.38098763884258,43.64177092840812 L -79.3809581647971,43.641695248772436 L -79.38092361075009,43.64160656483467 L -79.380913770126,43.64158118802307 L -79.38087083164082,43.641470405387096 L -79.38069408454957,43.64101445136918 L -79.38066287384048,43.64093390839515 L -79.38065309510375,43.64090865767524 L -79.38064260672894,43.640878734403366 L -79.38055064036739,43.64061599867668 L -79.3805398755166,43.64057548030965 L -79.38052870870082,43.64054396304689 L -79.38051637685697,43.640512444542814 L -79.38050326420056,43.64048092520682 L -79.38048977973452,43.6404494054747 L -79.38047511784964,43.64041788448769 L -79.38045968754898,43.640386362681625 L -79.38044386065299,43.64035484045268 L -79.38042688112937,43.640323316994795 L -79.38040951740594,43.640291793127005 L -79.38039136398768,43.640264769181634 L -79.38037245104528,43.64023324366087 L -79.38035276969225,43.640201717319954 L -79.38033230753553,43.64017019014547 L -79.3803110432892,43.640143162878566 L -79.38028940723883,43.64011613521351 L -79.38026701167405,43.640084605972746 L -79.38020187756403,43.639973700665784 L -79.38005205422964,43.639606872601846 L -79.37766846111178,43.633899767553245 L -79.39520697160687,43.6341752804126 L -79.39785551478363,43.63268710189319 L -79.39684808894063,43.63393192334186 L -79.39713703232985,43.63376861151425 L -79.39736568125458,43.633674303837445 L -79.39739339782307,43.63367744357321 L -79.39740934375256,43.63368672963397 L -79.39746035946084,43.63372620264059 L -79.39752504091626,43.63378246685055 L -79.39755281179688,43.63380513087158 L -79.39761656494058,43.63386084508158 L -79.39768686306692,43.63382611800754 L -79.39773800242372,43.63379137353276 L -79.39767426078521,43.63372871023694 L -79.3975988517226,43.63364751119452 L -79.39756590796803,43.63360570526866 L -79.39755319016655,43.633577861043904 L -79.39755961083314,43.63355467898034 L -79.39757241051367,43.633540774267026 L -79.39821266278715,43.63318448893937 L -79.39881899928861,43.63286206959177 L -79.39909988269231,43.63271270740513 L -79.4004057285769,43.632011749405976 L -79.40092243511361,43.631719653648865 L -79.4016752398332,43.63133518018498 L -79.40232124748236,43.63100524875569 L -79.40257126795423,43.631080473643785 L -79.40280619966786,43.63116830515803 L -79.40292673797369,43.63122456893794 L -79.4030039771862,43.631280804521545 L -79.40301013948158,43.63129429405807 L -79.40301009279516,43.631323503912334 L -79.40299139954992,43.63140436645374 L -79.40295845429867,43.63148555883734 L -79.40506295901447,43.63307897156653 L -79.40664421622532,43.6328136980196 L -79.40792017043108,43.63296978534256 z" /></g></g></svg>